<svg xmlns="http://www.w3.org/2000/svg" viewBox="0 0 52.009 52.009" xmlns:xlink="http://www.w3.org/1999/xlink" width="200" height="200">
	<path fill="#FFFFFF" d="M51.792,13.957c-0.992-5.681-5.097-9.002-9.814-10.05c-6.072-1.347-12.638,1.254-16.582,6.271
		c-0.087-0.153-0.183-0.295-0.274-0.443c-0.005-0.06-0.352-0.938-0.692-1.024C18.324,0.5,5.313,1.519,1.068,11.444
		c-2.91,6.806,0.658,15.068,4.37,20.637c4.811,7.219,12.037,12.655,19.252,16.616c0.337,0.184,0.633,0.115,0.859-0.065
		c0.193,0.104,0.428,0.134,0.688,0.025c0.816-0.336,2.732-1.5,5.166-3.274c1.327-0.452,9.112-7.501,9.615-8.28
		C47.463,30.546,53.209,22.072,51.792,13.957z M33.846,11.443c-0.135,0.423-0.264,0.849-0.374,1.292
		c-0.579,2.329-1.103,4.66-1.643,6.984c-0.512,1.767-1.037,3.525-1.641,5.249c-0.253,0.725-0.516,1.444-0.785,2.161
		c0.002-0.009,0.004-0.017,0.006-0.026c1.047-4.496,3.035-9.511,3.902-14.411C33.49,12.275,33.67,11.859,33.846,11.443z
		 M26.586,20.175c0.4-1.184,0.811-2.363,1.229-3.542c0.656-1.844,1.174-3.87,2.105-5.554c-1.201,4.277-2.52,8.534-3.816,12.78
		C26.297,22.626,26.458,21.394,26.586,20.175z M5.827,9.902c-0.813,1.771-1.483,3.685-2.183,5.358
		C4.057,13.436,4.747,11.453,5.827,9.902z M5.229,17.736c-1.391,2.959-0.954,0.568-0.349-0.635c1.408-2.798,2.547-7.587,4.766-9.775
		C8.24,9.67,7.291,12.648,6.426,14.949C6.068,15.903,5.66,16.821,5.229,17.736z M11.4,7.989c-0.578,3.648-2.711,7.634-4.218,10.907
		c0.25-0.777,0.468-1.578,0.653-2.411C8.923,13.691,9.775,10.351,11.4,7.989z M6.702,26.233c0.037-0.299,0.083-0.642,0.144-1.065
		c0.367-1.351,0.818-2.668,1.353-3.947c0.884-2.279,1.875-4.517,2.792-6.783c-0.206,0.706-0.416,1.413-0.616,2.122
		c-0.948,3.354-1.724,6.927-3.417,9.956C6.884,26.399,6.799,26.304,6.702,26.233z M12.744,19.558c-1,3.306-1.901,8.168-3.523,11.58
		c-0.106-0.418-0.203-0.839-0.299-1.259c0.043-0.079,0.086-0.138,0.129-0.223c1.627-3.298,1.829-7.132,3.23-10.546
		c0.676-1.649,1.286-3.302,1.875-4.964C13.721,15.959,13.283,17.773,12.744,19.558z M18.197,6.743
		c-1.01,3.263-1.889,6.57-2.827,9.857C16.199,13.268,16.972,9.917,18.197,6.743z M15.424,24.386
		c1.389-4.703,2.736-9.491,4.941-13.785c-0.243,3.085-1.37,6.284-2.574,9.199c-0.689,1.276-1.369,2.559-2.029,3.854
		C15.641,23.892,15.537,24.142,15.424,24.386z M17.025,35.786c-0.197,0.4-0.404,0.793-0.619,1.182
		c0.446-2.224,0.869-4.449,1.285-6.681c0.433-2.32,0.279-5.363,1.322-7.463c0.123-0.248,0.135-0.479,0.079-0.681
		c0.466-1.274,0.961-2.534,1.495-3.775c0.582-1.057,1.164-2.116,1.749-3.174c-1.298,4.781-2.973,9.426-4.315,14.195
		C17.425,31.509,17.209,33.594,17.025,35.786z M20.293,42.797c-0.232-0.14-0.457-0.292-0.678-0.449
		c0.185-0.032,0.363-0.148,0.508-0.387c0.652-1.078,1.251-2.241,1.806-3.458C21.455,39.97,20.919,41.405,20.293,42.797z
		 M20.984,36.06c0.002-0.015,0.006-0.028,0.008-0.043c0.285-0.891,0.563-1.785,0.844-2.677c0.057-0.021,0.115-0.035,0.167-0.068
		C21.686,34.225,21.349,35.159,20.984,36.06z M22.249,22.53c-0.15,0.339-0.282,0.691-0.425,1.033
		c1.096-3.668,2.242-7.329,3.101-11.125c0.034-0.001,0.07,0.005,0.106-0.002c0.042,0.034,0.093,0.052,0.138,0.078
		c-0.965,3.068-1.768,6.285-2.484,9.531C22.514,22.131,22.358,22.281,22.249,22.53z M25.691,35.59
		c-0.139,0.713-0.246,1.445-0.346,2.184c-0.217,0.627-0.428,1.257-0.629,1.892c-0.264,0.838-0.274,1.97-0.063,2.992
		c-0.12,0.647-0.262,1.286-0.44,1.91c-1.605-3.846,2.607-16.015,3.525-18.497c0.022-0.063,0.047-0.125,0.07-0.188
		C27.033,29.098,26.326,32.335,25.691,35.59z M28.445,40.395c-0.412,0.938-0.717,1.454-0.936,1.665
		c0.176-0.584,0.352-1.168,0.538-1.746c1.715-5.302,3.219-10.756,4.671-16.154c0.293-1.088,0.545-2.195,0.783-3.31
		c0.039-0.124,0.083-0.247,0.122-0.371c0.62-1.997,1.553-7.894,3.183-11.317c-1.076,4.081-1.594,8.458-2.812,12.485
		c-1.354,4.469-2.596,8.704-3.576,13.296C30.016,36.829,29.213,38.658,28.445,40.395z M30.792,41.751
		c-0.084,0.071-0.146,0.151-0.198,0.234c0.771-1.34,1.498-2.709,2.178-4.109C32.422,39.364,31.912,40.799,30.792,41.751z
		 M32.963,32.878c0.512-2.559,0.946-5.01,1.562-6.837c1.492-4.42,3.043-9.04,3.724-13.718c0.114-0.972,0.257-1.938,0.424-2.9
		c0.202-0.214,0.386-0.396,0.554-0.555c-0.481,4.259-2.464,13.224-2.674,13.965C35.579,26.276,34.35,29.617,32.963,32.878z
		 M38.334,28.216c0.135-0.761,0.273-1.52,0.389-2.295c0.732-4.861,1.813-9.471,3.015-14.204c0.294-1.155,0.738-2.94,0.608-4.467
		c1.862,2.663-3.139,18.084-3.736,20.019C38.519,27.558,38.428,27.876,38.334,28.216z M42.256,26.205
		c-0.665,3.545-1.409,7.139-3.377,10.104c1.292-1.947,1.776-4.563,2.383-6.841c1.5-5.633,2.488-11.261,3.387-17.048
		c0.133-0.849,0.174-2.154,0.019-3.436c0.007-0.114,0.013-0.227,0.015-0.339c0.163,0.316,0.348,0.607,0.584,0.892
		C46.103,13.936,42.779,23.421,42.256,26.205z M49.519,20.533c0.127-3.117-0.264-6.437-0.188-8.743
		C50.394,14.326,50.343,17.368,49.519,20.533z"/>
</svg>
